# This file uses centimeters as units for non-parametric coordinates.

mtllib leftArm.mtl
g default
v 1.957066 22.178001 -4.623764
v 1.739704 22.392185 -4.566056
v 1.433858 22.446114 -4.566056
v 1.156350 22.319189 -4.623764
v 1.013179 22.059893 -4.717136
v 1.059031 21.767268 -4.810508
v 1.276393 21.553084 -4.868215
v 1.582239 21.499156 -4.868215
v 1.859747 21.626080 -4.810508
v 2.002918 21.885375 -4.717136
v 1.777133 21.157551 -1.514056
v 1.559771 21.371734 -1.456348
v 1.253925 21.425663 -1.456348
v 0.976417 21.298739 -1.514056
v 0.833246 21.039442 -1.607428
v 0.879098 20.746818 -1.700799
v 1.096460 20.532634 -1.758507
v 1.402306 20.478705 -1.758507
v 1.679814 20.605630 -1.700799
v 1.822985 20.864924 -1.607428
v 1.328115 20.952183 -1.607428
v 1.963486 22.214413 -4.803865
v 1.747640 22.437190 -4.788674
v 1.441794 22.491119 -4.788674
v 1.162770 22.355601 -4.803865
v 1.017147 22.082398 -4.828444
v 1.060546 21.775861 -4.853025
v 1.861263 21.634673 -4.853025
v 2.006887 21.907880 -4.828444
v 1.966560 22.231846 -5.015871
v 1.750714 22.454626 -5.000680
v 1.444868 22.508555 -5.000680
v 1.165844 22.373034 -5.015871
v 1.020221 22.099831 -5.040451
v 1.063621 21.793297 -5.065030
v 1.279467 21.570519 -5.080221
v 1.585313 21.516590 -5.080221
v 1.864337 21.652110 -5.065030
v 2.009960 21.925313 -5.040451
v 1.965416 22.225357 -5.199610
v 1.749300 22.446602 -5.227794
v 1.443453 22.500531 -5.227794
v 1.164700 22.366545 -5.199610
v 1.019514 22.095821 -5.154007
v 1.063350 21.791764 -5.108405
v 1.864067 21.650576 -5.108405
v 2.009253 21.921304 -5.154007
v 1.960290 22.196285 -5.388517
v 1.744174 22.417532 -5.416701
v 1.438327 22.471461 -5.416701
v 1.159574 22.337473 -5.388517
v 1.014387 22.066747 -5.342915
v 1.058225 21.762693 -5.297312
v 1.274341 21.541447 -5.269128
v 1.580187 21.487518 -5.269129
v 1.858941 21.621505 -5.297312
v 2.004127 21.892229 -5.342915
v 1.951645 22.147260 -5.565508
v 1.733489 22.356933 -5.635473
v 1.427642 22.410864 -5.635472
v 1.150930 22.288450 -5.565507
v 1.009045 22.036449 -5.452300
v 1.056184 21.751119 -5.339094
v 1.856900 21.609932 -5.339094
v 1.998784 21.861931 -5.452300
v 1.932849 22.040663 -5.826349
v 1.714692 22.250334 -5.896316
v 1.408846 22.304265 -5.896315
v 1.132134 22.181854 -5.826348
v 0.990250 21.929853 -5.713142
v 1.037388 21.644524 -5.599936
v 1.255545 21.434851 -5.529970
v 1.561391 21.380922 -5.529970
v 1.838104 21.503336 -5.599936
v 1.979989 21.755335 -5.713142
v 1.917194 21.951875 -5.986584
v 1.695341 22.140587 -6.094376
v 1.389495 22.194518 -6.094376
v 1.116479 22.093067 -5.986584
v 0.980574 21.874981 -5.812172
v 1.033693 21.623565 -5.637762
v 1.834408 21.482377 -5.637762
v 1.970313 21.700461 -5.812173
v 1.893590 21.818013 -6.172358
v 1.671737 22.006726 -6.280150
v 1.365890 22.060657 -6.280150
v 1.092875 21.959204 -6.172359
v 0.956971 21.741117 -5.997947
v 1.010090 21.489704 -5.823537
v 1.231942 21.300990 -5.715745
v 1.537788 21.247060 -5.715744
v 1.810805 21.348514 -5.823536
v 1.946709 21.566598 -5.997948
v 1.670664 20.553757 -7.926885
v 1.448808 20.742461 -8.034671
v 1.228915 20.389606 -7.752475
v 1.142961 20.796392 -8.034670
v 0.869953 20.694953 -7.926890
v 0.734049 20.476877 -7.752484
v 0.787162 20.225451 -7.578063
v 1.009018 20.036737 -7.470273
v 1.314866 19.982810 -7.470275
v 1.587880 20.084261 -7.578063
v 1.723783 20.302348 -7.752478
vt 0.626409 0.064409
vt 0.548284 0.007647
vt 0.451716 0.007647
vt 0.373591 0.064409
vt 0.343750 0.156250
vt 0.373591 0.248091
vt 0.451716 0.304853
vt 0.548284 0.304853
vt 0.626409 0.248091
vt 0.656250 0.156250
vt 0.375000 0.312500
vt 0.400000 0.312500
vt 0.425000 0.312500
vt 0.450000 0.312500
vt 0.475000 0.312500
vt 0.500000 0.312500
vt 0.525000 0.312500
vt 0.550000 0.312500
vt 0.575000 0.312500
vt 0.600000 0.312500
vt 0.625000 0.312500
vt 0.375000 0.688440
vt 0.400000 0.688440
vt 0.425000 0.688440
vt 0.450000 0.688440
vt 0.475000 0.688440
vt 0.500000 0.688440
vt 0.525000 0.688440
vt 0.550000 0.688440
vt 0.575000 0.688440
vt 0.600000 0.688440
vt 0.625000 0.688440
vt 0.626409 0.751909
vt 0.548284 0.695147
vt 0.451716 0.695147
vt 0.373591 0.751909
vt 0.343750 0.843750
vt 0.373591 0.935591
vt 0.451716 0.992353
vt 0.548284 0.992353
vt 0.626409 0.935591
vt 0.656250 0.843750
vt 0.500000 0.150000
vt 0.500000 0.837500
vt 0.548284 0.007647
vt 0.626409 0.064409
vt 0.451716 0.007647
vt 0.373591 0.064409
vt 0.343750 0.156250
vt 0.373591 0.248091
vt 0.626409 0.248091
vt 0.656250 0.156250
vt 0.548284 0.007647
vt 0.626409 0.064409
vt 0.451716 0.007647
vt 0.373591 0.064409
vt 0.343750 0.156250
vt 0.373591 0.248091
vt 0.451716 0.304853
vt 0.548284 0.304853
vt 0.626409 0.248091
vt 0.656250 0.156250
vt 0.548284 0.007647
vt 0.626409 0.064409
vt 0.451716 0.007647
vt 0.373591 0.064409
vt 0.343750 0.156250
vt 0.373591 0.248091
vt 0.626409 0.248091
vt 0.656250 0.156250
vt 0.548284 0.007647
vt 0.626409 0.064409
vt 0.451716 0.007647
vt 0.373591 0.064409
vt 0.343750 0.156250
vt 0.373591 0.248091
vt 0.451716 0.304853
vt 0.548284 0.304853
vt 0.626409 0.248091
vt 0.656250 0.156250
vt 0.548284 0.007647
vt 0.626409 0.064409
vt 0.451716 0.007647
vt 0.373591 0.064409
vt 0.343750 0.156250
vt 0.373591 0.248091
vt 0.626409 0.248091
vt 0.656250 0.156250
vt 0.548284 0.007647
vt 0.626409 0.064409
vt 0.451716 0.007647
vt 0.373591 0.064409
vt 0.343750 0.156250
vt 0.373591 0.248091
vt 0.451716 0.304853
vt 0.548284 0.304853
vt 0.626409 0.248091
vt 0.656250 0.156250
vt 0.548284 0.007647
vt 0.626409 0.064409
vt 0.451716 0.007647
vt 0.373591 0.064409
vt 0.343750 0.156250
vt 0.373591 0.248091
vt 0.626409 0.248091
vt 0.656250 0.156250
vt 0.548284 0.007647
vt 0.626409 0.064409
vt 0.451716 0.007647
vt 0.373591 0.064409
vt 0.343750 0.156250
vt 0.373591 0.248091
vt 0.451716 0.304853
vt 0.548284 0.304853
vt 0.626409 0.248091
vt 0.656250 0.156250
vt 0.548284 0.007647
vt 0.626409 0.064409
vt 0.451716 0.007647
vt 0.373591 0.064409
vt 0.343750 0.156250
vt 0.373591 0.248091
vt 0.451716 0.304853
vt 0.548284 0.304853
vt 0.626409 0.248091
vt 0.656250 0.156250
vn 0.892167 0.412971 0.183011
vn 0.460108 0.837696 0.294219
vn 0.456780 0.814295 0.358157
vn 0.888526 0.388863 0.243533
vn -0.145852 0.944543 0.294219
vn -0.150727 0.921415 0.358157
vn -0.697118 0.693205 0.183011
vn -0.701942 0.669305 0.243533
vn -0.984094 0.177647 0.000834
vn -0.986321 0.154267 0.058068
vn -0.894969 -0.406297 -0.184264
vn -0.895244 -0.426975 -0.127396
vn -0.462242 -0.838840 -0.287540
vn -0.463500 -0.852405 -0.242020
vn 0.147465 -0.946348 -0.287541
vn 0.144008 -0.959525 -0.242020
vn 0.702034 -0.687891 -0.184264
vn 0.695221 -0.707417 -0.127396
vn 0.985505 -0.169646 0.000834
vn 0.979601 -0.192378 0.058068
vn 0.426298 0.645701 -0.633514
vn 0.865921 0.271758 -0.419915
vn -0.102541 -0.581525 -0.807040
vn -0.179737 0.752565 -0.633514
vn -0.720752 0.551534 -0.419913
vn -0.990065 0.119378 -0.074301
vn -0.884809 -0.378819 0.271310
vn -0.445183 -0.752776 0.484912
vn 0.160871 -0.859640 0.484911
vn 0.701881 -0.658600 0.271311
vn 0.971185 -0.226448 -0.074301
vn -0.054894 -0.311321 0.948718
vn 0.882952 0.461573 0.085707
vn 0.456912 0.879044 0.136063
vn -0.128706 0.982304 0.136063
vn -0.671836 0.735724 0.085707
vn -0.976613 0.214831 0.008618
vn -0.914524 -0.400591 -0.056329
vn 0.722361 -0.689218 -0.056329
vn 0.991193 -0.132146 0.008618
vn 0.883960 0.467279 0.016299
vn 0.458558 0.888378 0.022558
vn -0.127060 0.991638 0.022558
vn -0.670832 0.741430 0.016299
vn -0.976467 0.215661 -0.001536
vn -0.914817 -0.402240 -0.036219
vn -0.471920 -0.881196 0.028006
vn 0.142073 -0.989460 0.028006
vn 0.722073 -0.690868 -0.036219
vn 0.991339 -0.131316 -0.001536
vn 0.882594 0.466492 -0.058425
vn 0.457291 0.884964 -0.087879
vn -0.127038 0.987997 -0.087879
vn -0.669817 0.740224 -0.058425
vn -0.975813 0.218601 -0.001644
vn -0.915511 -0.395322 0.074566
vn 0.725091 -0.684604 0.074566
vn 0.991730 -0.128330 -0.001644
vn 0.880617 0.455280 -0.131278
vn 0.454074 0.866720 -0.206427
vn -0.130253 0.969754 -0.206425
vn -0.671795 0.729012 -0.131276
vn -0.976106 0.216939 -0.012416
vn -0.914924 -0.391979 0.096266
vn -0.464595 -0.840669 0.278258
vn 0.149052 -0.948871 0.278258
vn 0.725682 -0.681263 0.096266
vn 0.991437 -0.129992 -0.012417
vn 0.880116 0.427637 -0.206209
vn 0.450598 0.833373 -0.320079
vn -0.138387 0.937229 -0.320078
vn -0.680779 0.702865 -0.206206
vn -0.978282 0.207059 -0.009574
vn -0.904820 -0.371361 0.208308
vn 0.723239 -0.658432 0.208308
vn 0.990102 -0.140020 -0.009574
vn 0.876185 0.405344 -0.260761
vn 0.444086 0.796443 -0.410447
vn -0.144898 0.900299 -0.410446
vn -0.684710 0.680572 -0.260759
vn -0.978841 0.203886 -0.017339
vn -0.903756 -0.365328 0.223068
vn -0.451611 -0.766982 0.455836
vn 0.162052 -0.875186 0.455838
vn 0.724303 -0.652400 0.223069
vn 0.989543 -0.143192 -0.017339
vn 0.867425 0.368443 -0.334400
vn 0.432456 0.737568 -0.518629
vn -0.154105 0.840996 -0.518630
vn -0.689098 0.642901 -0.334399
vn -0.977833 0.208431 -0.019955
vn -0.896319 -0.304959 0.321889
vn 0.737963 -0.593124 0.321892
vn 0.990150 -0.138579 -0.019954
vn 0.879094 0.326681 -0.347092
vn 0.437597 0.702220 -0.561601
vn -0.171023 0.809540 -0.561602
vn -0.714346 0.607649 -0.347090
vn -0.984807 0.173651 -0.000001
vn -0.879103 -0.326669 0.347082
vn -0.437603 -0.702221 0.561596
vn 0.171038 -0.809541 0.561595
vn 0.714355 -0.607644 0.347083
vn 0.984808 -0.173649 -0.000002
s 1
g arm1 pTorso
usemtl initialShadingGroup
f 1/11/1 2/12/2 12/23/3 11/22/4
f 2/12/2 3/13/5 13/24/6 12/23/3
f 3/13/5 4/14/7 14/25/8 13/24/6
f 4/14/7 5/15/9 15/26/10 14/25/8
f 5/15/9 6/16/11 16/27/12 15/26/10
f 6/16/11 7/17/13 17/28/14 16/27/12
f 7/17/13 8/18/15 18/29/16 17/28/14
f 8/18/15 9/19/17 19/30/18 18/29/16
f 9/19/17 10/20/19 20/31/20 19/30/18
f 10/20/19 1/21/1 11/32/4 20/31/20
f 95/117/21 94/118/22 96/43/23
f 97/119/24 95/117/21 96/43/23
f 98/120/25 97/119/24 96/43/23
f 99/121/26 98/120/25 96/43/23
f 100/122/27 99/121/26 96/43/23
f 101/123/28 100/122/27 96/43/23
f 102/124/29 101/123/28 96/43/23
f 103/125/30 102/124/29 96/43/23
f 104/126/31 103/125/30 96/43/23
f 94/118/22 104/126/31 96/43/23
f 11/41/4 12/40/3 21/44/32
f 12/40/3 13/39/6 21/44/32
f 13/39/6 14/38/8 21/44/32
f 14/38/8 15/37/10 21/44/32
f 15/37/10 16/36/12 21/44/32
f 16/36/12 17/35/14 21/44/32
f 17/35/14 18/34/16 21/44/32
f 18/34/16 19/33/18 21/44/32
f 19/33/18 20/42/20 21/44/32
f 20/42/20 11/41/4 21/44/32
f 2/2/2 1/1/1 22/46/33 23/45/34
f 3/3/5 2/2/2 23/45/34 24/47/35
f 4/4/7 3/3/5 24/47/35 25/48/36
f 5/5/9 4/4/7 25/48/36 26/49/37
f 6/6/11 5/5/9 26/49/37 27/50/38
f 7/7/13 6/6/11 27/50/38
f 9/9/17 8/8/15 28/51/39
f 10/10/19 9/9/17 28/51/39 29/52/40
f 1/1/1 10/10/19 29/52/40 22/46/33
f 23/45/34 22/46/33 30/54/41 31/53/42
f 24/47/35 23/45/34 31/53/42 32/55/43
f 25/48/36 24/47/35 32/55/43 33/56/44
f 26/49/37 25/48/36 33/56/44 34/57/45
f 27/50/38 26/49/37 34/57/45 35/58/46
f 7/7/13 27/50/38 35/58/46 36/59/47
f 8/8/15 7/7/13 36/59/47 37/60/48
f 28/51/39 8/8/15 37/60/48 38/61/49
f 29/52/40 28/51/39 38/61/49 39/62/50
f 22/46/33 29/52/40 39/62/50 30/54/41
f 31/53/42 30/54/41 40/64/51 41/63/52
f 32/55/43 31/53/42 41/63/52 42/65/53
f 33/56/44 32/55/43 42/65/53 43/66/54
f 34/57/45 33/56/44 43/66/54 44/67/55
f 35/58/46 34/57/45 44/67/55 45/68/56
f 36/59/47 35/58/46 45/68/56
f 38/61/49 37/60/48 46/69/57
f 39/62/50 38/61/49 46/69/57 47/70/58
f 30/54/41 39/62/50 47/70/58 40/64/51
f 41/63/52 40/64/51 48/72/59 49/71/60
f 42/65/53 41/63/52 49/71/60 50/73/61
f 43/66/54 42/65/53 50/73/61 51/74/62
f 44/67/55 43/66/54 51/74/62 52/75/63
f 45/68/56 44/67/55 52/75/63 53/76/64
f 36/59/47 45/68/56 53/76/64 54/77/65
f 37/60/48 36/59/47 54/77/65 55/78/66
f 46/69/57 37/60/48 55/78/66 56/79/67
f 47/70/58 46/69/57 56/79/67 57/80/68
f 40/64/51 47/70/58 57/80/68 48/72/59
f 49/71/60 48/72/59 58/82/69 59/81/70
f 50/73/61 49/71/60 59/81/70 60/83/71
f 51/74/62 50/73/61 60/83/71 61/84/72
f 52/75/63 51/74/62 61/84/72 62/85/73
f 53/76/64 52/75/63 62/85/73 63/86/74
f 54/77/65 53/76/64 63/86/74
f 56/79/67 55/78/66 64/87/75
f 57/80/68 56/79/67 64/87/75 65/88/76
f 48/72/59 57/80/68 65/88/76 58/82/69
f 59/81/70 58/82/69 66/90/77 67/89/78
f 60/83/71 59/81/70 67/89/78 68/91/79
f 61/84/72 60/83/71 68/91/79 69/92/80
f 62/85/73 61/84/72 69/92/80 70/93/81
f 63/86/74 62/85/73 70/93/81 71/94/82
f 54/77/65 63/86/74 71/94/82 72/95/83
f 55/78/66 54/77/65 72/95/83 73/96/84
f 64/87/75 55/78/66 73/96/84 74/97/85
f 65/88/76 64/87/75 74/97/85 75/98/86
f 58/82/69 65/88/76 75/98/86 66/90/77
f 67/89/78 66/90/77 76/100/87 77/99/88
f 68/91/79 67/89/78 77/99/88 78/101/89
f 69/92/80 68/91/79 78/101/89 79/102/90
f 70/93/81 69/92/80 79/102/90 80/103/91
f 71/94/82 70/93/81 80/103/91 81/104/92
f 72/95/83 71/94/82 81/104/92
f 74/97/85 73/96/84 82/105/93
f 75/98/86 74/97/85 82/105/93 83/106/94
f 66/90/77 75/98/86 83/106/94 76/100/87
f 77/99/88 76/100/87 84/108/95 85/107/96
f 78/101/89 77/99/88 85/107/96 86/109/97
f 79/102/90 78/101/89 86/109/97 87/110/98
f 80/103/91 79/102/90 87/110/98 88/111/99
f 81/104/92 80/103/91 88/111/99 89/112/100
f 72/95/83 81/104/92 89/112/100 90/113/101
f 73/96/84 72/95/83 90/113/101 91/114/102
f 82/105/93 73/96/84 91/114/102 92/115/103
f 83/106/94 82/105/93 92/115/103 93/116/104
f 76/100/87 83/106/94 93/116/104 84/108/95
f 85/107/96 84/108/95 94/118/22 95/117/21
f 86/109/97 85/107/96 95/117/21 97/119/24
f 87/110/98 86/109/97 97/119/24 98/120/25
f 88/111/99 87/110/98 98/120/25 99/121/26
f 89/112/100 88/111/99 99/121/26 100/122/27
f 90/113/101 89/112/100 100/122/27 101/123/28
f 91/114/102 90/113/101 101/123/28 102/124/29
f 92/115/103 91/114/102 102/124/29 103/125/30
f 93/116/104 92/115/103 103/125/30 104/126/31
f 84/108/95 93/116/104 104/126/31 94/118/22
