# This file uses centimeters as units for non-parametric coordinates.

mtllib torso.mtl
g default
v 2.504209 11.390802 -0.915800
v 2.089657 11.463899 -1.741955
v 1.443977 11.577749 -2.397595
v 0.630373 11.721210 -2.818542
v -0.271513 11.880237 -2.963590
v -1.173400 12.039264 -2.818542
v -1.987004 12.182724 -2.397594
v -2.632683 12.296575 -1.741954
v -3.047234 12.369671 -0.915799
v -3.190079 12.394859 0.000000
v -3.047234 12.369671 0.915799
v -2.632683 12.296575 1.741954
v -1.987003 12.182724 2.397594
v -1.173400 12.039264 2.818541
v -0.271514 11.880237 2.963589
v 0.630373 11.721210 2.818540
v 1.443976 11.577750 2.397594
v 2.089655 11.463899 1.741954
v 2.504207 11.390802 0.915799
v 2.647051 11.365615 0.000000
v 4.731199 24.020694 -0.915800
v 4.316647 24.093791 -1.741955
v 3.670968 24.207641 -2.397595
v 2.857364 24.351102 -2.818542
v 1.955477 24.510129 -2.963590
v 1.053591 24.669156 -2.818542
v 0.239987 24.812616 -2.397594
v -0.405693 24.926467 -1.741954
v -0.820244 24.999563 -0.915799
v -0.963088 25.024750 0.000000
v -0.820244 24.999563 0.915799
v -0.405692 24.926466 1.741954
v 0.239987 24.812616 2.397594
v 1.053591 24.669156 2.818541
v 1.955477 24.510129 2.963589
v 2.857363 24.351102 2.818540
v 3.670967 24.207642 2.397594
v 4.316646 24.093791 1.741954
v 4.731197 24.020694 0.915799
v 4.874042 23.995507 0.000000
v 4.004897 24.937530 -0.631666
v 3.718963 24.987948 -1.201500
v 2.090365 25.275117 -0.000000
v 3.273611 25.066476 -1.653722
v 2.712434 25.165426 -1.944066
v 2.090365 25.275114 -2.044113
v 1.468296 25.384801 -1.944067
v 0.907119 25.483752 -1.653723
v 0.461767 25.562279 -1.201500
v 0.175833 25.612697 -0.631665
v 0.077307 25.630070 0.000000
v 0.175833 25.612697 0.631667
v 0.461767 25.562279 1.201501
v 0.907119 25.483752 1.653721
v 1.468296 25.384801 1.944066
v 2.090365 25.275114 2.044111
v 2.712433 25.165426 1.944066
v 3.273610 25.066476 1.653721
v 3.718962 24.987948 1.201497
v 4.004896 24.937530 0.631664
v 4.103421 24.920157 0.000000
v 1.315706 10.556311 -0.582582
v 1.051991 10.602812 -1.108137
v -0.450057 10.867664 0.000000
v 0.641245 10.675237 -1.525220
v 0.123674 10.766499 -1.793003
v -0.450057 10.867663 -1.885275
v -1.023789 10.968828 -1.793003
v -1.541359 11.060089 -1.525220
v -1.952106 11.132515 -1.108136
v -2.215821 11.179015 -0.582582
v -2.306690 11.195038 0.000000
v -2.215821 11.179015 0.582582
v -1.952105 11.132515 1.108137
v -1.541359 11.060089 1.525219
v -1.023789 10.968828 1.793003
v -0.450058 10.867663 1.885274
v 0.123673 10.766499 1.793002
v 0.641244 10.675237 1.525219
v 1.051990 10.602812 1.108136
v 1.315705 10.556312 0.582582
v 1.406575 10.540289 0.000000
vt 0.648603 0.107966
vt 0.626409 0.064408
vt 0.591842 0.029841
vt 0.548284 0.007647
vt 0.500000 -0.000000
vt 0.451716 0.007647
vt 0.408159 0.029841
vt 0.373591 0.064409
vt 0.351397 0.107966
vt 0.343750 0.156250
vt 0.351397 0.204534
vt 0.373591 0.248091
vt 0.408159 0.282659
vt 0.451716 0.304853
vt 0.500000 0.312500
vt 0.548284 0.304853
vt 0.591841 0.282659
vt 0.626409 0.248091
vt 0.648603 0.204534
vt 0.656250 0.156250
vt 0.375000 0.312500
vt 0.387500 0.312500
vt 0.400000 0.312500
vt 0.412500 0.312500
vt 0.425000 0.312500
vt 0.437500 0.312500
vt 0.450000 0.312500
vt 0.462500 0.312500
vt 0.475000 0.312500
vt 0.487500 0.312500
vt 0.500000 0.312500
vt 0.512500 0.312500
vt 0.525000 0.312500
vt 0.537500 0.312500
vt 0.550000 0.312500
vt 0.562500 0.312500
vt 0.575000 0.312500
vt 0.587500 0.312500
vt 0.600000 0.312500
vt 0.612500 0.312500
vt 0.625000 0.312500
vt 0.375000 0.688440
vt 0.387500 0.688440
vt 0.400000 0.688440
vt 0.412500 0.688440
vt 0.425000 0.688440
vt 0.437500 0.688440
vt 0.450000 0.688440
vt 0.462500 0.688440
vt 0.475000 0.688440
vt 0.487500 0.688440
vt 0.500000 0.688440
vt 0.512500 0.688440
vt 0.525000 0.688440
vt 0.537500 0.688440
vt 0.550000 0.688440
vt 0.562500 0.688440
vt 0.575000 0.688440
vt 0.587500 0.688440
vt 0.600000 0.688440
vt 0.612500 0.688440
vt 0.625000 0.688440
vt 0.648603 0.795466
vt 0.626409 0.751908
vt 0.591842 0.717341
vt 0.548284 0.695147
vt 0.500000 0.687500
vt 0.451716 0.695147
vt 0.408159 0.717341
vt 0.373591 0.751909
vt 0.351397 0.795466
vt 0.343750 0.843750
vt 0.351397 0.892034
vt 0.373591 0.935591
vt 0.408159 0.970159
vt 0.451716 0.992353
vt 0.500000 1.000000
vt 0.548284 0.992353
vt 0.591841 0.970159
vt 0.626409 0.935591
vt 0.648603 0.892034
vt 0.656250 0.843750
vt 0.500000 0.150000
vt 0.500000 0.837500
vt 0.648603 0.892034
vt 0.626409 0.935591
vt 0.591841 0.970159
vt 0.548284 0.992353
vt 0.500000 1.000000
vt 0.451716 0.992353
vt 0.408159 0.970159
vt 0.373591 0.935591
vt 0.351397 0.892034
vt 0.343750 0.843750
vt 0.351397 0.795466
vt 0.373591 0.751909
vt 0.408159 0.717341
vt 0.451716 0.695147
vt 0.500000 0.687500
vt 0.548284 0.695147
vt 0.591842 0.717341
vt 0.626409 0.751908
vt 0.648603 0.795466
vt 0.656250 0.843750
vt 0.626409 0.064408
vt 0.648603 0.107966
vt 0.591842 0.029841
vt 0.548284 0.007647
vt 0.500000 -0.000000
vt 0.451716 0.007647
vt 0.408159 0.029841
vt 0.373591 0.064409
vt 0.351397 0.107966
vt 0.343750 0.156250
vt 0.351397 0.204534
vt 0.373591 0.248091
vt 0.408159 0.282659
vt 0.451716 0.304853
vt 0.500000 0.312500
vt 0.548284 0.304853
vt 0.591841 0.282659
vt 0.626409 0.248091
vt 0.648603 0.204534
vt 0.656250 0.156250
vn 0.936608 -0.165149 -0.309016
vn 0.796726 -0.140484 -0.587785
vn 0.796726 -0.140484 -0.587785
vn 0.936608 -0.165149 -0.309016
vn 0.578855 -0.102068 -0.809017
vn 0.578855 -0.102068 -0.809017
vn 0.304322 -0.053660 -0.951057
vn 0.304322 -0.053660 -0.951057
vn 0.000000 0.000000 -1.000000
vn 0.000000 0.000000 -1.000000
vn -0.304322 0.053660 -0.951056
vn -0.304322 0.053660 -0.951056
vn -0.578856 0.102068 -0.809017
vn -0.578856 0.102068 -0.809017
vn -0.796726 0.140484 -0.587785
vn -0.796726 0.140484 -0.587785
vn -0.936608 0.165149 -0.309017
vn -0.936608 0.165149 -0.309017
vn -0.984808 0.173648 0.000000
vn -0.984808 0.173648 0.000000
vn -0.936608 0.165149 0.309017
vn -0.936608 0.165149 0.309017
vn -0.796726 0.140484 0.587785
vn -0.796726 0.140484 0.587785
vn -0.578856 0.102068 0.809017
vn -0.578856 0.102068 0.809017
vn -0.304322 0.053660 0.951057
vn -0.304322 0.053660 0.951057
vn 0.000000 -0.000000 1.000000
vn 0.000000 -0.000000 1.000000
vn 0.304322 -0.053660 0.951057
vn 0.304322 -0.053660 0.951057
vn 0.578855 -0.102068 0.809017
vn 0.578855 -0.102068 0.809017
vn 0.796726 -0.140484 0.587785
vn 0.796726 -0.140484 0.587785
vn 0.936608 -0.165149 0.309017
vn 0.936608 -0.165149 0.309017
vn 0.984808 -0.173648 0.000001
vn 0.984808 -0.173648 0.000001
vn -0.173649 -0.984808 0.000000
vn -0.173649 -0.984808 0.000000
vn -0.173649 -0.984808 0.000000
vn -0.173648 -0.984808 0.000000
vn -0.173648 -0.984808 0.000000
vn -0.173648 -0.984808 0.000000
vn -0.173648 -0.984808 -0.000001
vn -0.173648 -0.984808 -0.000001
vn -0.173648 -0.984808 -0.000001
vn -0.173648 -0.984808 0.000000
vn -0.173648 -0.984808 0.000000
vn -0.173648 -0.984808 0.000000
vn -0.173648 -0.984808 0.000000
vn -0.173648 -0.984808 0.000000
vn -0.173648 -0.984808 0.000000
vn -0.173648 -0.984808 0.000000
vn -0.173648 -0.984808 0.000000
vn -0.173648 -0.984808 0.000000
vn -0.173648 -0.984808 0.000000
vn -0.173648 -0.984808 0.000000
vn -0.173648 -0.984808 0.000000
vn -0.173648 -0.984808 0.000000
vn -0.173648 -0.984808 0.000000
vn -0.173648 -0.984808 0.000000
vn -0.173648 -0.984808 0.000000
vn -0.173648 -0.984808 0.000000
vn -0.173648 -0.984808 0.000000
vn -0.173648 -0.984808 0.000000
vn -0.173648 -0.984808 0.000000
vn -0.173648 -0.984808 0.000000
vn -0.173648 -0.984808 0.000000
vn -0.173648 -0.984808 0.000000
vn -0.173648 -0.984808 0.000000
vn -0.173648 -0.984808 -0.000001
vn -0.173648 -0.984808 -0.000001
vn -0.173648 -0.984808 -0.000001
vn -0.173648 -0.984808 -0.000001
vn -0.173648 -0.984808 -0.000001
vn -0.173648 -0.984808 -0.000001
vn -0.173648 -0.984808 -0.000000
vn -0.173648 -0.984808 -0.000000
vn -0.173648 -0.984808 -0.000000
vn -0.173648 -0.984808 0.000000
vn -0.173648 -0.984808 0.000000
vn -0.173648 -0.984808 0.000000
vn -0.173648 -0.984808 0.000000
vn -0.173648 -0.984808 0.000000
vn -0.173648 -0.984808 0.000000
vn -0.173648 -0.984808 0.000000
vn -0.173648 -0.984808 0.000000
vn -0.173648 -0.984808 0.000000
vn -0.173649 -0.984808 0.000002
vn -0.173649 -0.984808 0.000002
vn -0.173649 -0.984808 0.000002
vn -0.173649 -0.984808 0.000000
vn -0.173649 -0.984808 0.000000
vn -0.173649 -0.984808 0.000000
vn -0.173649 -0.984808 0.000000
vn -0.173649 -0.984808 0.000000
vn -0.173649 -0.984808 0.000000
vn 0.173650 0.984807 0.000000
vn 0.173649 0.984808 0.000000
vn 0.173648 0.984808 -0.000000
vn 0.173649 0.984808 -0.000000
vn 0.173649 0.984808 -0.000001
vn 0.173648 0.984808 -0.000002
vn 0.173648 0.984808 -0.000002
vn 0.173647 0.984808 -0.000002
vn 0.173647 0.984808 -0.000002
vn 0.173647 0.984808 -0.000001
vn 0.173647 0.984808 0.000000
vn 0.173647 0.984808 0.000000
vn 0.173647 0.984808 0.000001
vn 0.173647 0.984808 0.000002
vn 0.173648 0.984808 0.000001
vn 0.173648 0.984808 0.000001
vn 0.173649 0.984808 0.000001
vn 0.173649 0.984808 0.000000
vn 0.173649 0.984808 0.000001
vn 0.173650 0.984807 0.000001
vn 0.173650 0.984807 0.000000
vn 0.702319 0.647817 -0.295095
vn 0.702319 0.647817 -0.295095
vn 0.702319 0.647817 -0.295095
vn 0.702319 0.647817 -0.295095
vn 0.584599 0.668574 -0.459622
vn 0.584599 0.668574 -0.459622
vn 0.584599 0.668574 -0.459622
vn 0.584599 0.668574 -0.459622
vn 0.422572 0.697144 -0.579157
vn 0.422572 0.697144 -0.579157
vn 0.422572 0.697144 -0.579157
vn 0.422572 0.697144 -0.579157
vn 0.232099 0.730730 -0.642000
vn 0.232099 0.730730 -0.642000
vn 0.232099 0.730730 -0.642000
vn 0.232099 0.730730 -0.642000
vn 0.031823 0.766044 -0.642000
vn 0.031823 0.766044 -0.642000
vn 0.031823 0.766044 -0.642000
vn 0.031823 0.766044 -0.642000
vn -0.158651 0.799629 -0.579157
vn -0.158651 0.799629 -0.579157
vn -0.158651 0.799629 -0.579157
vn -0.158651 0.799629 -0.579157
vn -0.320678 0.828199 -0.459621
vn -0.320678 0.828199 -0.459621
vn -0.320678 0.828199 -0.459621
vn -0.320678 0.828199 -0.459621
vn -0.438397 0.848956 -0.295095
vn -0.438398 0.848956 -0.295095
vn -0.438398 0.848956 -0.295095
vn -0.438398 0.848956 -0.295095
vn -0.500286 0.859869 -0.101683
vn -0.500286 0.859869 -0.101683
vn -0.500286 0.859869 -0.101683
vn -0.500286 0.859869 -0.101683
vn -0.500286 0.859869 0.101683
vn -0.500286 0.859869 0.101683
vn -0.500286 0.859869 0.101683
vn -0.500286 0.859869 0.101683
vn -0.438397 0.848956 0.295096
vn -0.438397 0.848956 0.295096
vn -0.438397 0.848956 0.295096
vn -0.438397 0.848956 0.295096
vn -0.320678 0.828199 0.459622
vn -0.320678 0.828199 0.459622
vn -0.320678 0.828199 0.459622
vn -0.320678 0.828199 0.459622
vn -0.158651 0.799629 0.579157
vn -0.158651 0.799629 0.579157
vn -0.158651 0.799629 0.579157
vn -0.158651 0.799629 0.579157
vn 0.031823 0.766044 0.642000
vn 0.031823 0.766044 0.642000
vn 0.031823 0.766044 0.642000
vn 0.031823 0.766044 0.642000
vn 0.232099 0.730730 0.642000
vn 0.232099 0.730730 0.642000
vn 0.232099 0.730730 0.642000
vn 0.232099 0.730730 0.642000
vn 0.422573 0.697144 0.579157
vn 0.422573 0.697144 0.579157
vn 0.422573 0.697144 0.579157
vn 0.422573 0.697144 0.579157
vn 0.584600 0.668575 0.459621
vn 0.584599 0.668575 0.459621
vn 0.584600 0.668575 0.459621
vn 0.584599 0.668575 0.459621
vn 0.702319 0.647817 0.295095
vn 0.702319 0.647817 0.295095
vn 0.702319 0.647817 0.295095
vn 0.702319 0.647817 0.295095
vn 0.764207 0.636905 0.101683
vn 0.764207 0.636904 0.101683
vn 0.764207 0.636904 0.101683
vn 0.764207 0.636904 0.101683
vn 0.764208 0.636905 -0.101681
vn 0.764208 0.636905 -0.101681
vn 0.764208 0.636905 -0.101681
vn 0.764208 0.636905 -0.101681
vn 0.484519 -0.815974 -0.315320
vn 0.484519 -0.815974 -0.315320
vn 0.484519 -0.815974 -0.315320
vn 0.484519 -0.815974 -0.315320
vn 0.358732 -0.793794 -0.491123
vn 0.358732 -0.793794 -0.491123
vn 0.358732 -0.793794 -0.491123
vn 0.358732 -0.793794 -0.491123
vn 0.185600 -0.763267 -0.618851
vn 0.185600 -0.763267 -0.618851
vn 0.185600 -0.763267 -0.618851
vn 0.185600 -0.763267 -0.618851
vn -0.017928 -0.727379 -0.686002
vn -0.017928 -0.727379 -0.686002
vn -0.017928 -0.727379 -0.686002
vn -0.017928 -0.727379 -0.686002
vn -0.231931 -0.689645 -0.686002
vn -0.231931 -0.689645 -0.686002
vn -0.231931 -0.689645 -0.686002
vn -0.231931 -0.689645 -0.686002
vn -0.435460 -0.653757 -0.618851
vn -0.435460 -0.653757 -0.618851
vn -0.435460 -0.653757 -0.618851
vn -0.435460 -0.653757 -0.618851
vn -0.608592 -0.623229 -0.491123
vn -0.608592 -0.623229 -0.491123
vn -0.608592 -0.623229 -0.491123
vn -0.608592 -0.623229 -0.491123
vn -0.734379 -0.601049 -0.315320
vn -0.734379 -0.601049 -0.315320
vn -0.734379 -0.601049 -0.315320
vn -0.734379 -0.601049 -0.315320
vn -0.800510 -0.589389 -0.108652
vn -0.800510 -0.589389 -0.108652
vn -0.800510 -0.589389 -0.108652
vn -0.800510 -0.589389 -0.108652
vn -0.800510 -0.589389 0.108652
vn -0.800510 -0.589389 0.108652
vn -0.800510 -0.589389 0.108652
vn -0.800510 -0.589389 0.108652
vn -0.734379 -0.601049 0.315321
vn -0.734379 -0.601049 0.315321
vn -0.734379 -0.601049 0.315321
vn -0.734379 -0.601049 0.315321
vn -0.608591 -0.623229 0.491123
vn -0.608591 -0.623229 0.491123
vn -0.608591 -0.623229 0.491123
vn -0.608591 -0.623229 0.491123
vn -0.435460 -0.653757 0.618851
vn -0.435460 -0.653757 0.618851
vn -0.435460 -0.653757 0.618851
vn -0.435460 -0.653757 0.618851
vn -0.231931 -0.689645 0.686002
vn -0.231931 -0.689644 0.686002
vn -0.231931 -0.689644 0.686002
vn -0.231931 -0.689644 0.686002
vn -0.017928 -0.727379 0.686002
vn -0.017928 -0.727379 0.686002
vn -0.017928 -0.727379 0.686002
vn -0.017928 -0.727379 0.686002
vn 0.185600 -0.763267 0.618851
vn 0.185600 -0.763267 0.618851
vn 0.185600 -0.763267 0.618851
vn 0.185600 -0.763267 0.618851
vn 0.358732 -0.793794 0.491123
vn 0.358732 -0.793794 0.491123
vn 0.358732 -0.793794 0.491123
vn 0.358732 -0.793794 0.491123
vn 0.484520 -0.815974 0.315320
vn 0.484520 -0.815974 0.315320
vn 0.484520 -0.815974 0.315320
vn 0.484520 -0.815974 0.315320
vn 0.550650 -0.827635 0.108652
vn 0.550650 -0.827635 0.108652
vn 0.550650 -0.827635 0.108652
vn 0.550650 -0.827635 0.108652
vn 0.550650 -0.827635 -0.108651
vn 0.550650 -0.827635 -0.108651
vn 0.550650 -0.827635 -0.108651
vn 0.550650 -0.827635 -0.108651
s 1
g pTorso
usemtl initialShadingGroup
f 1/21/1 2/22/2 22/43/3 21/42/4
f 2/22/2 3/23/5 23/44/6 22/43/3
f 3/23/5 4/24/7 24/45/8 23/44/6
f 4/24/7 5/25/9 25/46/10 24/45/8
f 5/25/9 6/26/11 26/47/12 25/46/10
f 6/26/11 7/27/13 27/48/14 26/47/12
f 7/27/13 8/28/15 28/49/16 27/48/14
f 8/28/15 9/29/17 29/50/18 28/49/16
f 9/29/17 10/30/19 30/51/20 29/50/18
f 10/30/19 11/31/21 31/52/22 30/51/20
f 11/31/21 12/32/23 32/53/24 31/52/22
f 12/32/23 13/33/25 33/54/26 32/53/24
f 13/33/25 14/34/27 34/55/28 33/54/26
f 14/34/27 15/35/29 35/56/30 34/55/28
f 15/35/29 16/36/31 36/57/32 35/56/30
f 16/36/31 17/37/33 37/58/34 36/57/32
f 17/37/33 18/38/35 38/59/36 37/58/34
f 18/38/35 19/39/37 39/60/38 38/59/36
f 19/39/37 20/40/39 40/61/40 39/60/38
f 20/40/39 1/41/1 21/62/4 40/61/40
s off
f 63/105/41 62/106/42 64/83/43
f 65/107/44 63/105/45 64/83/46
f 66/108/47 65/107/48 64/83/49
f 67/109/50 66/108/51 64/83/52
f 68/110/53 67/109/54 64/83/55
f 69/111/56 68/110/57 64/83/58
f 70/112/59 69/111/60 64/83/61
f 71/113/62 70/112/63 64/83/64
f 72/114/65 71/113/66 64/83/67
f 73/115/68 72/114/69 64/83/70
f 74/116/71 73/115/72 64/83/73
f 75/117/74 74/116/75 64/83/76
f 76/118/77 75/117/78 64/83/79
f 77/119/80 76/118/81 64/83/82
f 78/120/83 77/119/84 64/83/85
f 79/121/86 78/120/87 64/83/88
f 80/122/89 79/121/90 64/83/91
f 81/123/92 80/122/93 64/83/94
f 82/124/95 81/123/96 64/83/97
f 62/106/98 82/124/99 64/83/100
s 2
f 41/85/101 42/86/102 43/84/103
f 42/86/102 44/87/104 43/84/103
f 44/87/104 45/88/105 43/84/103
f 45/88/105 46/89/106 43/84/103
f 46/89/106 47/90/107 43/84/103
f 47/90/107 48/91/108 43/84/103
f 48/91/108 49/92/109 43/84/103
f 49/92/109 50/93/110 43/84/103
f 50/93/110 51/94/111 43/84/103
f 51/94/111 52/95/112 43/84/103
f 52/95/112 53/96/113 43/84/103
f 53/96/113 54/97/114 43/84/103
f 54/97/114 55/98/115 43/84/103
f 55/98/115 56/99/116 43/84/103
f 56/99/116 57/100/117 43/84/103
f 57/100/117 58/101/118 43/84/103
f 58/101/118 59/102/119 43/84/103
f 59/102/119 60/103/120 43/84/103
f 60/103/120 61/104/121 43/84/103
f 61/104/121 41/85/101 43/84/103
s off
f 21/81/122 22/80/123 42/86/124 41/85/125
f 22/80/126 23/79/127 44/87/128 42/86/129
f 23/79/130 24/78/131 45/88/132 44/87/133
f 24/78/134 25/77/135 46/89/136 45/88/137
f 25/77/138 26/76/139 47/90/140 46/89/141
f 26/76/142 27/75/143 48/91/144 47/90/145
f 27/75/146 28/74/147 49/92/148 48/91/149
f 28/74/150 29/73/151 50/93/152 49/92/153
f 29/73/154 30/72/155 51/94/156 50/93/157
f 30/72/158 31/71/159 52/95/160 51/94/161
f 31/71/162 32/70/163 53/96/164 52/95/165
f 32/70/166 33/69/167 54/97/168 53/96/169
f 33/69/170 34/68/171 55/98/172 54/97/173
f 34/68/174 35/67/175 56/99/176 55/98/177
f 35/67/178 36/66/179 57/100/180 56/99/181
f 36/66/182 37/65/183 58/101/184 57/100/185
f 37/65/186 38/64/187 59/102/188 58/101/189
f 38/64/190 39/63/191 60/103/192 59/102/193
f 39/63/194 40/82/195 61/104/196 60/103/197
f 40/82/198 21/81/199 41/85/200 61/104/201
f 2/2/202 1/1/203 62/106/204 63/105/205
f 3/3/206 2/2/207 63/105/208 65/107/209
f 4/4/210 3/3/211 65/107/212 66/108/213
f 5/5/214 4/4/215 66/108/216 67/109/217
f 6/6/218 5/5/219 67/109/220 68/110/221
f 7/7/222 6/6/223 68/110/224 69/111/225
f 8/8/226 7/7/227 69/111/228 70/112/229
f 9/9/230 8/8/231 70/112/232 71/113/233
f 10/10/234 9/9/235 71/113/236 72/114/237
f 11/11/238 10/10/239 72/114/240 73/115/241
f 12/12/242 11/11/243 73/115/244 74/116/245
f 13/13/246 12/12/247 74/116/248 75/117/249
f 14/14/250 13/13/251 75/117/252 76/118/253
f 15/15/254 14/14/255 76/118/256 77/119/257
f 16/16/258 15/15/259 77/119/260 78/120/261
f 17/17/262 16/16/263 78/120/264 79/121/265
f 18/18/266 17/17/267 79/121/268 80/122/269
f 19/19/270 18/18/271 80/122/272 81/123/273
f 20/20/274 19/19/275 81/123/276 82/124/277
f 1/1/278 20/20/279 82/124/280 62/106/281
