# This file uses centimeters as units for non-parametric coordinates.

mtllib wireConnectorTorso.mtl
g default
v 1.046377 25.170217 -2.004939
v 1.001186 25.091526 -2.152682
v 0.913399 24.998743 -2.269930
v 0.791612 24.900950 -2.345209
v 0.647744 24.807722 -2.371148
v 0.495879 24.728182 -2.345209
v 0.350882 24.670118 -2.269930
v 0.226947 24.639212 -2.152681
v 0.136205 24.638491 -2.004939
v 0.087539 24.668024 -1.841166
v 0.085712 24.724921 -1.677392
v 0.130903 24.803613 -1.529650
v 0.218690 24.896396 -1.412401
v 0.340477 24.994188 -1.337123
v 0.484345 25.087417 -1.311184
v 0.636210 25.166956 -1.337123
v 0.781207 25.225021 -1.412401
v 0.905142 25.255926 -1.529650
v 0.995884 25.256647 -1.677392
v 1.044550 25.227114 -1.841166
v 0.655345 25.839558 -2.241839
v 0.610154 25.760867 -2.389582
v 0.522368 25.668084 -2.506830
v 0.400580 25.570292 -2.582109
v 0.256712 25.477063 -2.608048
v 0.104847 25.397523 -2.582109
v -0.040150 25.339459 -2.506830
v -0.164085 25.308553 -2.389581
v -0.254827 25.307832 -2.241839
v -0.303493 25.337365 -2.078066
v -0.305320 25.394263 -1.914292
v -0.260129 25.472954 -1.766550
v -0.172342 25.565737 -1.649301
v -0.050555 25.663529 -1.574023
v 0.093313 25.756758 -1.548084
v 0.245178 25.836297 -1.574023
v 0.390175 25.894362 -1.649301
v 0.514110 25.925267 -1.766550
v 0.604852 25.925989 -1.914292
v 0.653518 25.896455 -2.078066
v 0.566044 24.947569 -1.841166
v 0.175013 25.616910 -2.078066
vt 0.648603 0.107966
vt 0.626409 0.064408
vt 0.591842 0.029841
vt 0.548284 0.007647
vt 0.500000 -0.000000
vt 0.451716 0.007647
vt 0.408159 0.029841
vt 0.373591 0.064409
vt 0.351397 0.107966
vt 0.343750 0.156250
vt 0.351397 0.204534
vt 0.373591 0.248091
vt 0.408159 0.282659
vt 0.451716 0.304853
vt 0.500000 0.312500
vt 0.548284 0.304853
vt 0.591841 0.282659
vt 0.626409 0.248091
vt 0.648603 0.204534
vt 0.656250 0.156250
vt 0.375000 0.312500
vt 0.387500 0.312500
vt 0.400000 0.312500
vt 0.412500 0.312500
vt 0.425000 0.312500
vt 0.437500 0.312500
vt 0.450000 0.312500
vt 0.462500 0.312500
vt 0.475000 0.312500
vt 0.487500 0.312500
vt 0.500000 0.312500
vt 0.512500 0.312500
vt 0.525000 0.312500
vt 0.537500 0.312500
vt 0.550000 0.312500
vt 0.562500 0.312500
vt 0.575000 0.312500
vt 0.587500 0.312500
vt 0.600000 0.312500
vt 0.612500 0.312500
vt 0.625000 0.312500
vt 0.375000 0.688440
vt 0.387500 0.688440
vt 0.400000 0.688440
vt 0.412500 0.688440
vt 0.425000 0.688440
vt 0.437500 0.688440
vt 0.450000 0.688440
vt 0.462500 0.688440
vt 0.475000 0.688440
vt 0.487500 0.688440
vt 0.500000 0.688440
vt 0.512500 0.688440
vt 0.525000 0.688440
vt 0.537500 0.688440
vt 0.550000 0.688440
vt 0.562500 0.688440
vt 0.575000 0.688440
vt 0.587500 0.688440
vt 0.600000 0.688440
vt 0.612500 0.688440
vt 0.625000 0.688440
vt 0.648603 0.795466
vt 0.626409 0.751908
vt 0.591842 0.717341
vt 0.548284 0.695147
vt 0.500000 0.687500
vt 0.451716 0.695147
vt 0.408159 0.717341
vt 0.373591 0.751909
vt 0.351397 0.795466
vt 0.343750 0.843750
vt 0.351397 0.892034
vt 0.373591 0.935591
vt 0.408159 0.970159
vt 0.451716 0.992353
vt 0.500000 1.000000
vt 0.548284 0.992353
vt 0.591841 0.970159
vt 0.626409 0.935591
vt 0.648603 0.892034
vt 0.656250 0.843750
vt 0.500000 0.150000
vt 0.500000 0.837500
vn 0.866748 0.401763 -0.295524
vn 0.785201 0.259766 -0.562122
vn 0.785201 0.259766 -0.562122
vn 0.866748 0.401763 -0.295524
vn 0.626793 0.092341 -0.773695
vn 0.626793 0.092341 -0.773695
vn 0.407030 -0.084122 -0.909533
vn 0.407030 -0.084122 -0.909533
vn 0.147425 -0.252351 -0.956339
vn 0.147425 -0.252351 -0.956339
vn -0.126612 -0.395878 -0.909533
vn -0.126612 -0.395878 -0.909533
vn -0.388255 -0.500654 -0.773695
vn -0.388255 -0.500654 -0.773695
vn -0.611893 -0.556422 -0.562122
vn -0.611893 -0.556422 -0.562122
vn -0.775634 -0.557724 -0.295525
vn -0.775634 -0.557724 -0.295525
vn -0.863451 -0.504432 -0.000000
vn -0.863451 -0.504432 -0.000000
vn -0.866748 -0.401762 0.295525
vn -0.866748 -0.401762 0.295525
vn -0.785201 -0.259766 0.562122
vn -0.785201 -0.259766 0.562122
vn -0.626793 -0.092341 0.773695
vn -0.626793 -0.092341 0.773695
vn -0.407030 0.084122 0.909533
vn -0.407030 0.084122 0.909533
vn -0.147425 0.252351 0.956339
vn -0.147425 0.252351 0.956339
vn 0.126612 0.395878 0.909533
vn 0.126612 0.395878 0.909533
vn 0.388255 0.500654 0.773695
vn 0.388255 0.500654 0.773695
vn 0.611893 0.556422 0.562122
vn 0.611893 0.556422 0.562122
vn 0.775634 0.557724 0.295525
vn 0.775634 0.557724 0.295525
vn 0.863451 0.504432 0.000001
vn 0.863451 0.504432 0.000001
vn 0.482408 -0.825753 0.292259
vn 0.482408 -0.825753 0.292259
vn 0.482408 -0.825753 0.292259
vn 0.482408 -0.825753 0.292259
vn 0.482408 -0.825753 0.292259
vn 0.482408 -0.825753 0.292259
vn 0.482408 -0.825753 0.292259
vn 0.482408 -0.825753 0.292259
vn 0.482408 -0.825753 0.292259
vn 0.482408 -0.825753 0.292259
vn 0.482408 -0.825753 0.292259
vn 0.482408 -0.825753 0.292259
vn 0.482408 -0.825753 0.292259
vn 0.482408 -0.825753 0.292259
vn 0.482408 -0.825753 0.292259
vn 0.482408 -0.825753 0.292259
vn 0.482408 -0.825753 0.292259
vn 0.482408 -0.825753 0.292259
vn 0.482408 -0.825753 0.292259
vn 0.482408 -0.825753 0.292259
vn 0.482408 -0.825753 0.292259
vn -0.482408 0.825753 -0.292259
vn -0.482408 0.825753 -0.292259
vn -0.482408 0.825753 -0.292259
vn -0.482408 0.825753 -0.292259
vn -0.482408 0.825753 -0.292259
vn -0.482408 0.825753 -0.292259
vn -0.482408 0.825753 -0.292259
vn -0.482408 0.825753 -0.292259
vn -0.482408 0.825753 -0.292259
vn -0.482408 0.825753 -0.292259
vn -0.482408 0.825753 -0.292259
vn -0.482408 0.825753 -0.292259
vn -0.482408 0.825753 -0.292259
vn -0.482408 0.825753 -0.292259
vn -0.482408 0.825753 -0.292259
vn -0.482408 0.825753 -0.292259
vn -0.482408 0.825753 -0.292259
vn -0.482408 0.825753 -0.292259
vn -0.482408 0.825753 -0.292259
vn -0.482408 0.825753 -0.292259
vn -0.482408 0.825753 -0.292259
s 1
g pCylinder33
usemtl initialShadingGroup
f 1/21/1 2/22/2 22/43/3 21/42/4
f 2/22/2 3/23/5 23/44/6 22/43/3
f 3/23/5 4/24/7 24/45/8 23/44/6
f 4/24/7 5/25/9 25/46/10 24/45/8
f 5/25/9 6/26/11 26/47/12 25/46/10
f 6/26/11 7/27/13 27/48/14 26/47/12
f 7/27/13 8/28/15 28/49/16 27/48/14
f 8/28/15 9/29/17 29/50/18 28/49/16
f 9/29/17 10/30/19 30/51/20 29/50/18
f 10/30/19 11/31/21 31/52/22 30/51/20
f 11/31/21 12/32/23 32/53/24 31/52/22
f 12/32/23 13/33/25 33/54/26 32/53/24
f 13/33/25 14/34/27 34/55/28 33/54/26
f 14/34/27 15/35/29 35/56/30 34/55/28
f 15/35/29 16/36/31 36/57/32 35/56/30
f 16/36/31 17/37/33 37/58/34 36/57/32
f 17/37/33 18/38/35 38/59/36 37/58/34
f 18/38/35 19/39/37 39/60/38 38/59/36
f 19/39/37 20/40/39 40/61/40 39/60/38
f 20/40/39 1/41/1 21/62/4 40/61/40
s 2
f 2/2/41 1/1/42 41/83/43
f 3/3/44 2/2/41 41/83/43
f 4/4/45 3/3/44 41/83/43
f 5/5/46 4/4/45 41/83/43
f 6/6/47 5/5/46 41/83/43
f 7/7/48 6/6/47 41/83/43
f 8/8/49 7/7/48 41/83/43
f 9/9/50 8/8/49 41/83/43
f 10/10/51 9/9/50 41/83/43
f 11/11/52 10/10/51 41/83/43
f 12/12/53 11/11/52 41/83/43
f 13/13/54 12/12/53 41/83/43
f 14/14/55 13/13/54 41/83/43
f 15/15/56 14/14/55 41/83/43
f 16/16/57 15/15/56 41/83/43
f 17/17/58 16/16/57 41/83/43
f 18/18/59 17/17/58 41/83/43
f 19/19/60 18/18/59 41/83/43
f 20/20/61 19/19/60 41/83/43
f 1/1/42 20/20/61 41/83/43
s 3
f 21/81/62 22/80/63 42/84/64
f 22/80/63 23/79/65 42/84/64
f 23/79/65 24/78/66 42/84/64
f 24/78/66 25/77/67 42/84/64
f 25/77/67 26/76/68 42/84/64
f 26/76/68 27/75/69 42/84/64
f 27/75/69 28/74/70 42/84/64
f 28/74/70 29/73/71 42/84/64
f 29/73/71 30/72/72 42/84/64
f 30/72/72 31/71/73 42/84/64
f 31/71/73 32/70/74 42/84/64
f 32/70/74 33/69/75 42/84/64
f 33/69/75 34/68/76 42/84/64
f 34/68/76 35/67/77 42/84/64
f 35/67/77 36/66/78 42/84/64
f 36/66/78 37/65/79 42/84/64
f 37/65/79 38/64/80 42/84/64
f 38/64/80 39/63/81 42/84/64
f 39/63/81 40/82/82 42/84/64
f 40/82/82 21/81/62 42/84/64
